<?xml version="1.0" encoding="UTF-8" standalone="no"?>
<!DOCTYPE svg PUBLIC "-//W3C//DTD SVG 1.1//EN" "http://www.w3.org/Graphics/SVG/1.1/DTD/svg11.dtd">
<svg width="100%" height="100%" viewBox="0 0 600 300" version="1.1" xmlns="http://www.w3.org/2000/svg" xmlns:xlink="http://www.w3.org/1999/xlink" xml:space="preserve" xmlns:serif="http://www.serif.com/" style="fill-rule:evenodd;clip-rule:evenodd;stroke-miterlimit:3;">
    <g id="logo" transform="matrix(1.34156,0.359471,-0.359471,1.34156,36.6117,-3.09311)">
        <path d="M108,162L54,108L72,90L90,108L90,73.738C90,73.447 90.175,73.184 90.444,73.073C90.714,72.962 91.023,73.023 91.229,73.229C95.287,77.287 108,90 108,90C108,90 120.713,77.287 124.771,73.229C124.977,73.023 125.286,72.962 125.556,73.073C125.825,73.184 126,73.447 126,73.738C126,80.932 126,108 126,108L144,90L162,108L108,162Z" style="fill:url(#_Linear1);stroke:rgb(8,8,8);stroke-width:9px;"/>
        <path d="M72,18L18,72L36,90L54,72L54,106.262C54,106.553 54.175,106.816 54.444,106.927C54.714,107.038 55.023,106.977 55.229,106.771C59.287,102.713 72,90 72,90C72,90 84.713,102.713 88.771,106.771C88.977,106.977 89.286,107.038 89.556,106.927C89.825,106.816 90,106.553 90,106.262C90,99.068 90,72 90,72L108,90L126,72L72,18Z" style="fill:url(#_Linear2);stroke:rgb(8,8,8);stroke-width:9px;"/>
    </g>
    <g transform="matrix(1.38889,0,0,1.38889,-25,-25)">
        <g id="text">
            <g transform="matrix(72,0,0,72,187.74,136.048)">
                <path d="M0.264,0.012C0.397,0.012 0.507,-0.045 0.507,-0.162C0.507,-0.245 0.451,-0.28 0.331,-0.302L0.239,-0.319C0.195,-0.327 0.178,-0.339 0.178,-0.359C0.178,-0.385 0.206,-0.399 0.26,-0.399C0.305,-0.399 0.343,-0.389 0.353,-0.353L0.481,-0.4C0.444,-0.478 0.356,-0.51 0.261,-0.51C0.138,-0.51 0.033,-0.457 0.033,-0.353C0.033,-0.27 0.099,-0.221 0.195,-0.205L0.284,-0.19C0.341,-0.18 0.361,-0.166 0.361,-0.145C0.361,-0.114 0.316,-0.099 0.267,-0.099C0.21,-0.099 0.165,-0.119 0.15,-0.161L0.021,-0.114C0.059,-0.031 0.148,0.012 0.264,0.012Z" style="fill:rgb(8,8,8);fill-rule:nonzero;"/>
            </g>
            <g transform="matrix(72,0,0,72,225.324,136.048)">
                <path d="M0.024,-0.38L0.118,-0.38L0.118,-0L0.271,-0L0.271,-0.496L0.024,-0.496L0.024,-0.38ZM0.195,-0.578C0.245,-0.578 0.285,-0.619 0.285,-0.668C0.285,-0.718 0.245,-0.758 0.195,-0.758C0.145,-0.758 0.105,-0.718 0.105,-0.668C0.105,-0.619 0.145,-0.578 0.195,-0.578Z" style="fill:rgb(8,8,8);fill-rule:nonzero;"/>
            </g>
            <g transform="matrix(72,0,0,72,248.004,136.048)">
                <path d="M0.202,-0L0.202,-0.259C0.202,-0.345 0.229,-0.392 0.292,-0.392C0.363,-0.392 0.366,-0.334 0.366,-0.264L0.366,-0L0.519,-0L0.519,-0.262C0.519,-0.349 0.545,-0.392 0.607,-0.392C0.68,-0.392 0.684,-0.334 0.684,-0.264L0.684,-0L0.836,-0L0.836,-0.302C0.836,-0.436 0.796,-0.51 0.669,-0.51C0.599,-0.51 0.537,-0.482 0.499,-0.427C0.476,-0.481 0.431,-0.51 0.352,-0.51C0.278,-0.51 0.224,-0.467 0.202,-0.43L0.183,-0.496L0.05,-0.496L0.05,-0L0.202,-0Z" style="fill:rgb(8,8,8);fill-rule:nonzero;"/>
            </g>
            <g transform="matrix(72,0,0,72,311.796,136.048)">
                <path d="M0.005,-0.38L0.087,-0.38L0.087,-0L0.239,-0L0.239,-0.38L0.347,-0.38L0.347,-0.496L0.239,-0.496L0.239,-0.563C0.239,-0.601 0.251,-0.608 0.305,-0.608L0.347,-0.608L0.347,-0.728L0.278,-0.728C0.144,-0.728 0.087,-0.695 0.087,-0.577L0.087,-0.496L0.005,-0.496L0.005,-0.38Z" style="fill:rgb(8,8,8);fill-rule:nonzero;"/>
            </g>
            <g transform="matrix(72,0,0,72,338.22,136.048)">
                <path d="M0.024,-0.38L0.118,-0.38L0.118,-0L0.271,-0L0.271,-0.496L0.024,-0.496L0.024,-0.38ZM0.195,-0.578C0.245,-0.578 0.285,-0.619 0.285,-0.668C0.285,-0.718 0.245,-0.758 0.195,-0.758C0.145,-0.758 0.105,-0.718 0.105,-0.668C0.105,-0.619 0.145,-0.578 0.195,-0.578Z" style="fill:rgb(8,8,8);fill-rule:nonzero;"/>
            </g>
            <g transform="matrix(72,0,0,72,360.9,136.048)">
                <path d="M0.05,-0.14C0.05,-0.023 0.092,-0 0.214,-0L0.311,-0L0.311,-0.124L0.268,-0.124C0.217,-0.124 0.202,-0.133 0.202,-0.18L0.202,-0.668L0.05,-0.668L0.05,-0.14Z" style="fill:rgb(8,8,8);fill-rule:nonzero;"/>
            </g>
            <g transform="matrix(72,0,0,72,383.508,136.048)">
                <path d="M0.024,-0.251C0.024,-0.087 0.135,0.012 0.296,0.012C0.377,0.012 0.461,-0.023 0.513,-0.099L0.392,-0.143C0.373,-0.121 0.339,-0.106 0.292,-0.106C0.236,-0.106 0.182,-0.14 0.177,-0.21L0.544,-0.21C0.554,-0.385 0.453,-0.51 0.29,-0.51C0.145,-0.51 0.024,-0.409 0.024,-0.251ZM0.294,-0.397C0.353,-0.397 0.401,-0.364 0.403,-0.3L0.177,-0.3C0.186,-0.368 0.237,-0.397 0.294,-0.397Z" style="fill:rgb(8,8,8);fill-rule:nonzero;"/>
            </g>
            <g transform="matrix(24,0,0,24,242.364,164.048)">
                <path d="M0.015,-0.429L0.099,-0.429L0.099,-0L0.183,-0L0.183,-0.429L0.286,-0.429L0.286,-0.496L0.183,-0.496L0.183,-0.571C0.183,-0.622 0.191,-0.635 0.234,-0.635L0.286,-0.635L0.286,-0.706L0.232,-0.706C0.121,-0.706 0.099,-0.672 0.099,-0.57L0.099,-0.496L0.015,-0.496L0.015,-0.429Z" style="fill:rgb(32,32,32);fill-rule:nonzero;"/>
            </g>
            <g transform="matrix(24,0,0,24,249.324,164.048)">
                <path d="M0.038,-0.246C0.038,-0.067 0.162,0.012 0.276,0.012C0.391,0.012 0.514,-0.067 0.514,-0.246C0.514,-0.425 0.391,-0.504 0.276,-0.504C0.162,-0.504 0.038,-0.425 0.038,-0.246ZM0.128,-0.246C0.128,-0.374 0.205,-0.43 0.276,-0.43C0.348,-0.43 0.424,-0.374 0.424,-0.246C0.424,-0.118 0.348,-0.062 0.276,-0.062C0.205,-0.062 0.128,-0.118 0.128,-0.246Z" style="fill:rgb(32,32,32);fill-rule:nonzero;"/>
            </g>
            <g transform="matrix(24,0,0,24,262.572,164.048)">
                <path d="M0.07,-0.496L0.07,-0L0.154,-0L0.154,-0.213C0.154,-0.345 0.199,-0.417 0.335,-0.417L0.335,-0.504C0.252,-0.504 0.193,-0.464 0.158,-0.404L0.131,-0.496L0.07,-0.496Z" style="fill:rgb(32,32,32);fill-rule:nonzero;"/>
            </g>
            <g transform="matrix(24,0,0,24,277.452,164.048)">
                <path d="M0.076,-0L0.17,-0L0.17,-0.266L0.285,-0.266C0.448,-0.266 0.563,-0.301 0.563,-0.466C0.563,-0.631 0.448,-0.668 0.285,-0.668L0.076,-0.668L0.076,-0ZM0.293,-0.589C0.39,-0.589 0.467,-0.575 0.467,-0.466C0.467,-0.357 0.39,-0.347 0.293,-0.347L0.17,-0.347L0.17,-0.589L0.293,-0.589Z" style="fill:rgb(32,32,32);fill-rule:nonzero;"/>
            </g>
            <g transform="matrix(24,0,0,24,291.876,164.048)">
                <path d="M0.179,0.001C0.156,0.077 0.143,0.087 0.071,0.087L0.037,0.087L0.037,0.161L0.08,0.161C0.191,0.161 0.217,0.129 0.253,0.022L0.429,-0.496L0.337,-0.496L0.215,-0.113L0.093,-0.496L0,-0.496L0.179,0.001Z" style="fill:rgb(32,32,32);fill-rule:nonzero;"/>
            </g>
            <g transform="matrix(24,0,0,24,302.172,164.048)">
                <path d="M0.02,-0.496L0.02,-0.429L0.104,-0.429L0.104,-0.124C0.104,-0.021 0.126,-0 0.221,-0L0.284,-0L0.284,-0.074L0.239,-0.074C0.191,-0.074 0.188,-0.087 0.188,-0.138L0.188,-0.429L0.284,-0.429L0.284,-0.496L0.188,-0.496L0.188,-0.621L0.104,-0.621L0.104,-0.496L0.02,-0.496Z" style="fill:rgb(32,32,32);fill-rule:nonzero;"/>
            </g>
            <g transform="matrix(24,0,0,24,309.948,164.048)">
                <path d="M0.07,-0.668L0.07,-0L0.154,-0L0.154,-0.269C0.154,-0.375 0.204,-0.432 0.285,-0.432C0.381,-0.432 0.394,-0.365 0.394,-0.289L0.394,-0L0.478,-0L0.478,-0.314C0.478,-0.427 0.434,-0.504 0.314,-0.504C0.23,-0.504 0.182,-0.468 0.154,-0.421L0.154,-0.668L0.07,-0.668Z" style="fill:rgb(32,32,32);fill-rule:nonzero;"/>
            </g>
            <g transform="matrix(24,0,0,24,322.788,164.048)">
                <path d="M0.038,-0.246C0.038,-0.067 0.162,0.012 0.276,0.012C0.391,0.012 0.514,-0.067 0.514,-0.246C0.514,-0.425 0.391,-0.504 0.276,-0.504C0.162,-0.504 0.038,-0.425 0.038,-0.246ZM0.128,-0.246C0.128,-0.374 0.205,-0.43 0.276,-0.43C0.348,-0.43 0.424,-0.374 0.424,-0.246C0.424,-0.118 0.348,-0.062 0.276,-0.062C0.205,-0.062 0.128,-0.118 0.128,-0.246Z" style="fill:rgb(32,32,32);fill-rule:nonzero;"/>
            </g>
            <g transform="matrix(24,0,0,24,336.036,164.048)">
                <path d="M0.07,-0.496L0.07,-0L0.154,-0L0.154,-0.269C0.154,-0.375 0.204,-0.432 0.285,-0.432C0.381,-0.432 0.394,-0.365 0.394,-0.289L0.394,-0L0.478,-0L0.478,-0.314C0.478,-0.427 0.434,-0.504 0.314,-0.504C0.23,-0.504 0.182,-0.468 0.154,-0.421L0.132,-0.496L0.07,-0.496Z" style="fill:rgb(32,32,32);fill-rule:nonzero;"/>
            </g>
            <g transform="matrix(24,0,0,24,355.86,164.048)">
                <path d="M0.042,-0.151C0.065,-0.06 0.137,0.012 0.272,0.012C0.399,0.012 0.514,-0.053 0.514,-0.188C0.514,-0.258 0.486,-0.324 0.386,-0.355C0.456,-0.384 0.495,-0.442 0.495,-0.51C0.495,-0.634 0.395,-0.68 0.279,-0.68C0.156,-0.68 0.076,-0.617 0.052,-0.522L0.134,-0.498C0.147,-0.564 0.195,-0.61 0.277,-0.61C0.348,-0.61 0.407,-0.573 0.407,-0.501C0.407,-0.396 0.293,-0.39 0.218,-0.39L0.218,-0.314C0.271,-0.314 0.424,-0.315 0.424,-0.187C0.424,-0.104 0.361,-0.058 0.273,-0.058C0.188,-0.058 0.14,-0.105 0.125,-0.175L0.042,-0.151Z" style="fill:rgb(32,32,32);fill-rule:nonzero;"/>
            </g>
        </g>
    </g>
    <defs>
        <linearGradient id="_Linear1" x1="0" y1="0" x2="1" y2="0" gradientUnits="userSpaceOnUse" gradientTransform="matrix(108,0,0,90,54,117)"><stop offset="0" style="stop-color:rgb(255,195,49);stop-opacity:1"/><stop offset="1" style="stop-color:rgb(255,224,82);stop-opacity:1"/></linearGradient>
        <linearGradient id="_Linear2" x1="0" y1="0" x2="1" y2="0" gradientUnits="userSpaceOnUse" gradientTransform="matrix(108,0,0,90,18,63)"><stop offset="0" style="stop-color:rgb(54,105,148);stop-opacity:1"/><stop offset="1" style="stop-color:rgb(56,126,184);stop-opacity:1"/></linearGradient>
    </defs>
</svg>
